<?xml version="1.0" ?><svg height="240px" version="1.1" viewBox="0 0 240 240" width="240px" xmlns="http://www.w3.org/2000/svg" xmlns:xlink="http://www.w3.org/1999/xlink"><title/><desc/><g fill="none" fill-rule="evenodd" id="abacus" stroke="none" stroke-width="1"><g id="bounding-box"><polygon id="shape" points="0 0 240 0 240 240 0 240"/></g><rect fill="#E8F7FF" height="1" id="Rectangle" rx="0.5" stroke="#46AAF7" stroke-width="10" width="130" x="55" y="65"/><rect fill="#E8F7FF" height="1" id="Rectangle-Copy-2" rx="0.5" stroke="#46AAF7" stroke-width="10" width="130" x="55" y="105"/><rect fill="#E8F7FF" height="1" id="Rectangle-Copy-3" rx="0.5" stroke="#46AAF7" stroke-width="10" width="130" x="55" y="145"/><rect fill="#E8F7FF" height="170" id="Rectangle" rx="10" stroke="#46AAF7" stroke-width="10" width="20" x="45" y="35"/><rect fill="#E8F7FF" height="20" id="Rectangle" rx="5" stroke="#46AAF7" stroke-width="10" width="10" x="85" y="55"/><rect fill="#E8F7FF" height="20" id="Rectangle-Copy-4" rx="5" stroke="#46AAF7" stroke-width="10" width="10" x="115" y="55"/><rect fill="#E8F7FF" height="20" id="Rectangle-Copy-5" rx="5" stroke="#46AAF7" stroke-width="10" width="10" x="115" y="95"/><rect fill="#E8F7FF" height="20" id="Rectangle-Copy-6" rx="5" stroke="#46AAF7" stroke-width="10" width="10" x="145" y="95"/><rect fill="#E8F7FF" height="20" id="Rectangle-Copy-7" rx="5" stroke="#46AAF7" stroke-width="10" width="10" x="85" y="135"/><rect fill="#E8F7FF" height="20" id="Rectangle-Copy-8" rx="5" stroke="#46AAF7" stroke-width="10" width="10" x="115" y="135"/><rect fill="#E8F7FF" height="20" id="Rectangle-Copy-9" rx="5" stroke="#46AAF7" stroke-width="10" width="10" x="145" y="135"/><rect fill="#E8F7FF" height="170" id="Rectangle-Copy" rx="10" stroke="#46AAF7" stroke-width="10" width="20" x="175" y="35"/><rect fill="#E8F7FF" height="20" id="Rectangle" rx="10" stroke="#46AAF7" stroke-width="10" width="190" x="25" y="185"/></g></svg>