<?xml version="1.0" ?><svg height="32px" version="1.1" viewBox="0 0 32 32" width="32px" xmlns="http://www.w3.org/2000/svg" xmlns:xlink="http://www.w3.org/1999/xlink"><title/><desc/><defs/><g fill="none" fill-rule="evenodd" id="Page-1" stroke="none" stroke-width="1"><g id="letter-ABC"><g id="Page-1" transform="translate(2.000000, 6.000000)"><path d="M5.1565,9.8948 L9.6385,9.8948 L7.3775,3.7028 L5.1565,9.8948 Z M11.1745,14.0598 L10.4575,12.1768 L4.3585,12.1768 L3.6415,14.1008 C3.3625,14.8518 3.1235,15.3578 2.9255,15.6208 C2.7275,15.8838 2.4035,16.0148 1.9535,16.0148 C1.5715,16.0148 1.2335,15.8748 0.9405,15.5948 C0.6465,15.3158 0.5005,14.9978 0.5005,14.6438 C0.5005,14.4388 0.5345,14.2268 0.6025,14.0088 C0.6705,13.7908 0.7835,13.4868 0.9405,13.0978 L4.7775,3.3548 C4.8865,3.0758 5.0185,2.7398 5.1715,2.3468 C5.3255,1.9548 5.4895,1.6288 5.6635,1.3698 C5.8375,1.1108 6.0655,0.9008 6.3485,0.7408 C6.6315,0.5798 6.9815,0.4998 7.3975,0.4998 C7.8205,0.4998 8.1735,0.5798 8.4565,0.7408 C8.7405,0.9008 8.9685,1.1068 9.1425,1.3598 C9.3165,1.6118 9.4635,1.8828 9.5825,2.1728 C9.7025,2.4628 9.8535,2.8508 10.0385,3.3348 L13.9575,13.0158 C14.2645,13.7528 14.4185,14.2888 14.4185,14.6228 C14.4185,14.9708 14.2735,15.2898 13.9835,15.5798 C13.6935,15.8698 13.3435,16.0148 12.9345,16.0148 C12.6955,16.0148 12.4905,15.9718 12.3205,15.8868 C12.1495,15.8018 12.0065,15.6858 11.8905,15.5388 C11.7745,15.3918 11.6495,15.1668 11.5165,14.8638 C11.3835,14.5598 11.2695,14.2918 11.1745,14.0598 L11.1745,14.0598 Z" fill="#F42F42" id="Fill-1"/><path d="M5.1565,9.8948 L9.6385,9.8948 L7.3775,3.7028 L5.1565,9.8948 L5.1565,9.8948 Z M11.1745,14.0598 L10.4575,12.1768 L4.3585,12.1768 L3.6415,14.1008 C3.3625,14.8518 3.1235,15.3578 2.9255,15.6208 C2.7275,15.8838 2.4035,16.0148 1.9535,16.0148 C1.5715,16.0148 1.2335,15.8748 0.9405,15.5948 C0.6465,15.3158 0.5005,14.9978 0.5005,14.6438 C0.5005,14.4388 0.5345,14.2268 0.6025,14.0088 C0.6705,13.7908 0.7835,13.4868 0.9405,13.0978 L4.7775,3.3548 C4.8865,3.0758 5.0185,2.7398 5.1715,2.3468 C5.3255,1.9548 5.4895,1.6288 5.6635,1.3698 C5.8375,1.1108 6.0655,0.9008 6.3485,0.7408 C6.6315,0.5798 6.9815,0.4998 7.3975,0.4998 C7.8205,0.4998 8.1735,0.5798 8.4565,0.7408 C8.7405,0.9008 8.9685,1.1068 9.1425,1.3598 C9.3165,1.6118 9.4635,1.8828 9.5825,2.1728 C9.7025,2.4628 9.8535,2.8508 10.0385,3.3348 L13.9575,13.0158 C14.2645,13.7528 14.4185,14.2888 14.4185,14.6228 C14.4185,14.9708 14.2735,15.2898 13.9835,15.5798 C13.6935,15.8698 13.3435,16.0148 12.9345,16.0148 C12.6955,16.0148 12.4905,15.9718 12.3205,15.8868 C12.1495,15.8018 12.0065,15.6858 11.8905,15.5388 C11.7745,15.3918 11.6495,15.1668 11.5165,14.8638 C11.3835,14.5598 11.2695,14.2918 11.1745,14.0598 L11.1745,14.0598 Z" id="Stroke-3" stroke="#330910" stroke-linecap="round" stroke-linejoin="round"/><path d="M2.7041,14.9001 C2.5601,15.0911 2.3151,15.1841 1.9531,15.1841 C1.6421,15.1841 1.3731,15.0721 1.1311,14.8411 C0.9631,14.6801 0.8591,14.5101 0.8111,14.3271 C0.7901,14.4351 0.7771,14.5421 0.7771,14.6441 C0.7771,14.9221 0.8931,15.1671 1.1311,15.3951 C1.3731,15.6261 1.6421,15.7381 1.9531,15.7381 C2.3151,15.7381 2.5601,15.6451 2.7041,15.4541 C2.8851,15.2131 3.1131,14.7251 3.3821,14.0041 L4.0731,12.1481 C4.0731,12.1481 2.8521,14.7031 2.7041,14.9001 L2.7041,14.9001 Z M4.1661,11.9001 L10.6491,11.9001 L4.1661,11.9001 Z M10.7241,12.0971 L11.4301,13.9551 C11.5251,14.1851 11.6381,14.4501 11.7711,14.7521 C11.8931,15.0331 12.0071,15.2391 12.1081,15.3681 C12.1991,15.4821 12.3091,15.5721 12.4431,15.6391 C12.5751,15.7051 12.7401,15.7381 12.9341,15.7381 C13.2701,15.7381 13.5491,15.6221 13.7871,15.3841 C14.0251,15.1461 14.1411,14.8971 14.1411,14.6231 C14.1411,14.5521 14.1311,14.4521 14.1031,14.3171 C14.0531,14.4961 13.9511,14.6661 13.7871,14.8301 C13.5491,15.0681 13.2701,15.1841 12.9341,15.1841 C12.7401,15.1841 12.5751,15.1511 12.4431,15.0851 C12.3091,15.0171 12.1991,14.9281 12.1081,14.8131 C12.0071,14.6851 11.8931,14.4781 11.7711,14.1981 C11.6381,13.8961 11.5251,13.6311 11.4301,13.4011 L10.7241,12.0971 Z M10.6491,11.3461 L4.1661,11.3461 L10.6491,11.3461 Z" fill="#332E09" id="Fill-5" opacity="0.203766325"/><path d="M5.6356,3.5357 L4.2156,7.2067" id="Stroke-7" stroke="#FFFFFF" stroke-dasharray="1,2,6,2,3" stroke-linecap="round" stroke-linejoin="round" stroke-width="0.5"/><path d="M17.4343,13.4724 L14.6343,13.4724 L14.6343,17.3514 L17.5253,17.3514 C19.3433,17.3514 20.2523,16.6954 20.2523,15.3844 C20.2523,14.7144 20.0173,14.2274 19.5453,13.9254 C19.0743,13.6234 18.3703,13.4724 17.4343,13.4724 L17.4343,13.4724 Z M14.6343,8.1074 L14.6343,11.5424 L17.0993,11.5424 C17.7693,11.5424 18.2873,11.4784 18.6533,11.3514 C19.0183,11.2254 19.2983,10.9834 19.4913,10.6264 C19.6423,10.3734 19.7183,10.0894 19.7183,9.7754 C19.7183,9.1044 19.4793,8.6584 19.0023,8.4384 C18.5243,8.2174 17.7963,8.1074 16.8183,8.1074 L14.6343,8.1074 Z M17.6333,19.3724 L13.5733,19.3724 C12.9873,19.3724 12.5693,19.2404 12.3183,18.9774 C12.0683,18.7144 11.9423,18.2964 11.9423,17.7224 L11.9423,7.7364 C11.9423,7.1504 12.0713,6.7284 12.3273,6.4714 C12.5843,6.2154 13.0003,6.0864 13.5733,6.0864 L17.8783,6.0864 C18.5123,6.0864 19.0623,6.1264 19.5273,6.2044 C19.9933,6.2834 20.4093,6.4344 20.7783,6.6574 C21.0923,6.8444 21.3703,7.0824 21.6123,7.3694 C21.8533,7.6564 22.0383,7.9734 22.1643,8.3204 C22.2913,8.6684 22.3553,9.0354 22.3553,9.4214 C22.3553,10.7504 21.6903,11.7234 20.3613,12.3394 C22.1073,12.8954 22.9803,13.9764 22.9803,15.5834 C22.9803,16.3274 22.7903,16.9964 22.4093,17.5914 C22.0293,18.1864 21.5153,18.6254 20.8693,18.9094 C20.4643,19.0784 19.9993,19.1984 19.4733,19.2674 C18.9473,19.3374 18.3343,19.3724 17.6333,19.3724 L17.6333,19.3724 Z" fill="#2FBBF4" id="Fill-9"/><path d="M17.4343,13.4724 L14.6343,13.4724 L14.6343,17.3514 L17.5253,17.3514 C19.3433,17.3514 20.2523,16.6954 20.2523,15.3844 C20.2523,14.7144 20.0173,14.2274 19.5453,13.9254 C19.0743,13.6234 18.3703,13.4724 17.4343,13.4724 L17.4343,13.4724 Z M14.6343,8.1074 L14.6343,11.5424 L17.0993,11.5424 C17.7693,11.5424 18.2873,11.4784 18.6533,11.3514 C19.0183,11.2254 19.2983,10.9834 19.4913,10.6264 C19.6423,10.3734 19.7183,10.0894 19.7183,9.7754 C19.7183,9.1044 19.4793,8.6584 19.0023,8.4384 C18.5243,8.2174 17.7963,8.1074 16.8183,8.1074 L14.6343,8.1074 L14.6343,8.1074 Z M17.6333,19.3724 L13.5733,19.3724 C12.9873,19.3724 12.5693,19.2404 12.3183,18.9774 C12.0683,18.7144 11.9423,18.2964 11.9423,17.7224 L11.9423,7.7364 C11.9423,7.1504 12.0713,6.7284 12.3273,6.4714 C12.5843,6.2154 13.0003,6.0864 13.5733,6.0864 L17.8783,6.0864 C18.5123,6.0864 19.0623,6.1264 19.5273,6.2044 C19.9933,6.2834 20.4093,6.4344 20.7783,6.6574 C21.0923,6.8444 21.3703,7.0824 21.6123,7.3694 C21.8533,7.6564 22.0383,7.9734 22.1643,8.3204 C22.2913,8.6684 22.3553,9.0354 22.3553,9.4214 C22.3553,10.7504 21.6903,11.7234 20.3613,12.3394 C22.1073,12.8954 22.9803,13.9764 22.9803,15.5834 C22.9803,16.3274 22.7903,16.9964 22.4093,17.5914 C22.0293,18.1864 21.5153,18.6254 20.8693,18.9094 C20.4643,19.0784 19.9993,19.1984 19.4733,19.2674 C18.9473,19.3374 18.3343,19.3724 17.6333,19.3724 L17.6333,19.3724 Z" id="Stroke-11" stroke="#092933" stroke-linejoin="round"/><path d="M22.7271,15.3533 C22.6891,15.9503 22.5211,16.5023 22.2091,16.9893 C21.8561,17.5413 21.3731,17.9543 20.7731,18.2183 C20.3941,18.3763 19.9451,18.4913 19.4421,18.5583 C18.9291,18.6263 18.3211,18.6603 17.6331,18.6603 L13.5741,18.6603 C13.0581,18.6603 12.6931,18.5523 12.4901,18.3393 C12.2841,18.1233 12.1801,17.7563 12.1801,17.2483 L12.1801,17.7223 C12.1801,18.2303 12.2841,18.5983 12.4901,18.8143 C12.6931,19.0263 13.0581,19.1343 13.5741,19.1343 L17.6331,19.1343 C18.3211,19.1343 18.9291,19.1003 19.4421,19.0323 C19.9451,18.9663 20.3941,18.8513 20.7731,18.6923 C21.3731,18.4293 21.8561,18.0153 22.2091,17.4633 C22.5641,16.9103 22.7431,16.2773 22.7431,15.5843 C22.7431,15.5033 22.7321,15.4303 22.7271,15.3533" fill="#332E09" id="Fill-13" opacity="0.203766325"/><path d="M14.6538,6.8132 L18.7688,6.8132" id="Stroke-15" stroke="#FFFFFF" stroke-dasharray="1,2,6,2,3" stroke-linecap="round" stroke-linejoin="round" stroke-width="0.5"/><path d="M28.5,16.8927 C28.5,17.2417 28.414,17.6187 28.243,18.0247 C28.072,18.4317 27.803,18.8297 27.435,19.2207 C27.068,19.6127 26.599,19.9297 26.028,20.1737 C25.457,20.4187 24.792,20.5407 24.033,20.5407 C23.457,20.5407 22.933,20.4857 22.462,20.3757 C21.99,20.2667 21.562,20.0957 21.178,19.8637 C20.793,19.6317 20.439,19.3267 20.117,18.9487 C19.829,18.6047 19.583,18.2197 19.38,17.7937 C19.176,17.3677 19.023,16.9127 18.922,16.4297 C18.82,15.9457 18.769,15.4327 18.769,14.8897 C18.769,14.0077 18.897,13.2177 19.152,12.5197 C19.408,11.8227 19.774,11.2257 20.251,10.7297 C20.727,10.2337 21.286,9.8567 21.926,9.5977 C22.566,9.3387 23.249,9.2087 23.973,9.2087 C24.857,9.2087 25.643,9.3857 26.333,9.7397 C27.023,10.0937 27.552,10.5307 27.919,11.0517 C28.287,11.5717 28.47,12.0637 28.47,12.5277 C28.47,12.7817 28.381,13.0057 28.202,13.2007 C28.023,13.3947 27.808,13.4917 27.554,13.4917 C27.272,13.4917 27.059,13.4247 26.918,13.2897 L26.776,13.1557 C26.594,12.8467 26.163,12.1677 25.818,11.6457 L25.429,11.3767 C25.039,11.1077 24.559,10.9727 23.988,10.9727 C23.08,10.9727 22.356,11.3187 21.818,12.0117 C21.279,12.7047 21.01,13.6887 21.01,14.9647 C21.01,15.8167 21.129,16.5257 21.367,17.0907 C21.606,17.6567 21.943,18.0787 22.38,18.3577 C22.817,18.6367 23.328,18.7767 23.914,18.7767 C24.549,18.7767 25.086,18.6177 25.526,18.3017 L25.965,17.9857 C26.27,17.3927 26.614,16.6717 26.73,16.3827 L26.869,16.2017 C27.008,16.0197 27.232,15.9287 27.54,15.9287 C27.803,15.9287 28.028,16.0207 28.217,16.2047 C28.406,16.3897 28.5,16.6187 28.5,16.8927" fill="#2FF489" id="Fill-17"/><path d="M28.5,16.8927 C28.5,17.2417 28.414,17.6187 28.243,18.0247 C28.072,18.4317 27.803,18.8297 27.435,19.2207 C27.068,19.6127 26.599,19.9297 26.028,20.1737 C25.457,20.4187 24.792,20.5407 24.033,20.5407 C23.457,20.5407 22.933,20.4857 22.462,20.3757 C21.99,20.2667 21.562,20.0957 21.178,19.8637 C20.793,19.6317 20.439,19.3267 20.117,18.9487 C19.829,18.6047 19.583,18.2197 19.38,17.7937 C19.176,17.3677 19.023,16.9127 18.922,16.4297 C18.82,15.9457 18.769,15.4327 18.769,14.8897 C18.769,14.0077 18.897,13.2177 19.152,12.5197 C19.408,11.8227 19.774,11.2257 20.251,10.7297 C20.727,10.2337 21.286,9.8567 21.926,9.5977 C22.566,9.3387 23.249,9.2087 23.973,9.2087 C24.857,9.2087 25.643,9.3857 26.333,9.7397 C27.023,10.0937 27.552,10.5307 27.919,11.0517 C28.287,11.5717 28.47,12.0637 28.47,12.5277 C28.47,12.7817 28.381,13.0057 28.202,13.2007 C28.023,13.3947 27.808,13.4917 27.554,13.4917 C27.272,13.4917 27.059,13.4247 26.918,13.2897 L26.776,13.1557 C26.594,12.8467 26.163,12.1677 25.818,11.6457 L25.429,11.3767 C25.039,11.1077 24.559,10.9727 23.988,10.9727 C23.08,10.9727 22.356,11.3187 21.818,12.0117 C21.279,12.7047 21.01,13.6887 21.01,14.9647 C21.01,15.8167 21.129,16.5257 21.367,17.0907 C21.606,17.6567 21.943,18.0787 22.38,18.3577 C22.817,18.6367 23.328,18.7767 23.914,18.7767 C24.549,18.7767 25.086,18.6177 25.526,18.3017 L25.965,17.9857 C26.27,17.3927 26.614,16.6717 26.73,16.3827 L26.869,16.2017 C27.008,16.0197 27.232,15.9287 27.54,15.9287 C27.803,15.9287 28.028,16.0207 28.217,16.2047 C28.406,16.3897 28.5,16.6187 28.5,16.8927 L28.5,16.8927 Z" id="Stroke-19" stroke="#09331B"/><path d="M19.7199,12.7293 C19.9449,12.1143 20.2699,11.5833 20.6859,11.1513 C21.1009,10.7193 21.5939,10.3863 22.1519,10.1603" id="Stroke-21" stroke="#FFFFFF" stroke-dasharray="1,2,6,2,3" stroke-linecap="round" stroke-linejoin="round" stroke-width="0.5"/><path d="M28.2834,16.7314 C28.2534,16.9844 28.1774,17.2564 28.0574,17.5414 C27.8964,17.9234 27.6374,18.3054 27.2884,18.6774 C26.9424,19.0464 26.4914,19.3504 25.9494,19.5834 C25.4064,19.8154 24.7614,19.9334 24.0324,19.9334 C23.4754,19.9334 22.9624,19.8794 22.5074,19.7744 C22.0584,19.6704 21.6464,19.5054 21.2814,19.2854 C20.9164,19.0664 20.5764,18.7724 20.2694,18.4124 C19.9944,18.0834 19.7564,17.7094 19.5614,17.3014 C19.3654,16.8914 19.2164,16.4474 19.1184,15.9824 C19.0314,15.5694 18.9894,15.1234 18.9794,14.6614 C18.9774,14.7384 18.9704,14.8114 18.9704,14.8894 C18.9704,15.4164 19.0204,15.9204 19.1184,16.3874 C19.2164,16.8524 19.3654,17.2964 19.5614,17.7054 C19.7564,18.1144 19.9944,18.4884 20.2694,18.8164 C20.5764,19.1764 20.9164,19.4704 21.2814,19.6904 C21.6464,19.9104 22.0584,20.0744 22.5074,20.1784 C22.9624,20.2844 23.4754,20.3384 24.0324,20.3384 C24.7614,20.3384 25.4064,20.2204 25.9494,19.9874 C26.4914,19.7554 26.9424,19.4504 27.2884,19.0824 C27.6374,18.7104 27.8964,18.3284 28.0574,17.9464 C28.2174,17.5674 28.2984,17.2124 28.2984,16.8924 C28.2984,16.8364 28.2934,16.7824 28.2834,16.7314" fill="#332E09" id="Fill-23" opacity="0.203766325"/></g></g></g></svg>