<?xml version="1.0" encoding="UTF-8" standalone="no"?>
<svg
   width="315.33334"
   height="205.33324"
   overflow="hidden"
   version="1.1"
   id="svg162"
   sodipodi:docname="numbersgame.svg"
   inkscape:version="1.2-dev (72973b3, 2021-05-17)"
   xmlns:inkscape="http://www.inkscape.org/namespaces/inkscape"
   xmlns:sodipodi="http://sodipodi.sourceforge.net/DTD/sodipodi-0.dtd"
   xmlns="http://www.w3.org/2000/svg"
   xmlns:svg="http://www.w3.org/2000/svg">
  <sodipodi:namedview
     id="namedview164"
     pagecolor="#ffffff"
     bordercolor="#666666"
     borderopacity="1.0"
     inkscape:pageshadow="2"
     inkscape:pageopacity="0.0"
     inkscape:pagecheckerboard="0"
     showgrid="false"
     fit-margin-top="0"
     fit-margin-left="0"
     fit-margin-right="0"
     fit-margin-bottom="0"
     inkscape:zoom="1.390625"
     inkscape:cx="276.85393"
     inkscape:cy="275.05618"
     inkscape:window-width="2560"
     inkscape:window-height="1377"
     inkscape:window-x="-8"
     inkscape:window-y="-8"
     inkscape:window-maximized="1"
     inkscape:current-layer="svg162" />
  <defs
     id="defs134">
    <clipPath
       id="clip0">
      <rect
         x="0"
         y="0"
         width="1280"
         height="720"
         id="rect131" />
    </clipPath>
  </defs>
  <g
     clip-path="url(#clip0)"
     id="g160"
     transform="translate(-362.83333,-84.833435)">
    <path
       d="m 363.5,133.5 c 0,-26.51 21.49,-47.9999 48,-47.9999 26.51,0 48,21.4899 48,47.9999 0,26.51 -21.49,48 -48,48 -26.51,0 -48,-21.49 -48,-48 z"
       stroke="#2f528f"
       stroke-width="1.33333"
       stroke-miterlimit="8"
       fill="#4472c4"
       fill-rule="evenodd"
       id="path136" />
    <text
       fill="#ffffff"
       font-family="'Cascadia Code', 'Cascadia Code_MSFontService', sans-serif"
       font-weight="400"
       font-size="72px"
       transform="translate(390.379,158)"
       id="text138">4</text>
    <path
       d="m 472.5,133.5 c 0,-26.51 21.49,-47.9999 48,-47.9999 26.51,0 48,21.4899 48,47.9999 0,26.51 -21.49,48 -48,48 -26.51,0 -48,-21.49 -48,-48 z"
       stroke="#2f528f"
       stroke-width="1.33333"
       stroke-miterlimit="8"
       fill="#4472c4"
       fill-rule="evenodd"
       id="path140" />
    <text
       fill="#ffffff"
       font-family="'Cascadia Code', 'Cascadia Code_MSFontService', sans-serif"
       font-weight="400"
       font-size="72px"
       transform="translate(499.275,158)"
       id="text142">2</text>
    <path
       d="m 581.5,133.5 c 0,-26.51 21.49,-47.9999 48,-47.9999 26.51,0 48,21.4899 48,47.9999 0,26.51 -21.49,48 -48,48 -26.51,0 -48,-21.49 -48,-48 z"
       stroke="#2f528f"
       stroke-width="1.33333"
       stroke-miterlimit="8"
       fill="#4472c4"
       fill-rule="evenodd"
       id="path144" />
    <text
       fill="#ffffff"
       font-family="'Cascadia Code', 'Cascadia Code_MSFontService', sans-serif"
       font-weight="400"
       font-size="72px"
       transform="translate(608.17,158)"
       id="text146">1</text>
    <path
       d="m 363.5,241.5 c 0,-26.51 21.49,-48 48,-48 26.51,0 48,21.49 48,48 0,26.51 -21.49,48 -48,48 -26.51,0 -48,-21.49 -48,-48 z"
       stroke="#2f528f"
       stroke-width="1.33333"
       stroke-miterlimit="8"
       fill="#4472c4"
       fill-rule="evenodd"
       id="path148" />
    <text
       fill="#ffffff"
       font-family="'Cascadia Code', 'Cascadia Code_MSFontService', sans-serif"
       font-weight="400"
       font-size="72px"
       transform="translate(390.379,267)"
       id="text150">3</text>
    <path
       d="m 472.5,241.5 c 0,-26.51 21.49,-48 48,-48 26.51,0 48,21.49 48,48 0,26.51 -21.49,48 -48,48 -26.51,0 -48,-21.49 -48,-48 z"
       stroke="#2f528f"
       stroke-width="1.33333"
       stroke-miterlimit="8"
       fill="#4472c4"
       fill-rule="evenodd"
       id="path152" />
    <text
       fill="#ffffff"
       font-family="'Cascadia Code', 'Cascadia Code_MSFontService', sans-serif"
       font-weight="400"
       font-size="72px"
       transform="translate(499.275,267)"
       id="text154">6</text>
    <path
       d="m 581.5,241.5 c 0,-26.51 21.49,-48 48,-48 26.51,0 48,21.49 48,48 0,26.51 -21.49,48 -48,48 -26.51,0 -48,-21.49 -48,-48 z"
       stroke="#2f528f"
       stroke-width="1.33333"
       stroke-miterlimit="8"
       fill="#4472c4"
       fill-rule="evenodd"
       id="path156" />
    <text
       fill="#ffffff"
       font-family="'Cascadia Code', 'Cascadia Code_MSFontService', sans-serif"
       font-weight="400"
       font-size="72px"
       transform="translate(608.17,267)"
       id="text158">5</text>
  </g>
</svg>
